<?xml version="1.0" encoding="utf-8"?>
<!-- Generator: Adobe Illustrator 21.0.0, SVG Export Plug-In . SVG Version: 6.00 Build 0)  -->
<svg version="1.1" id="Layer_1" xmlns="http://www.w3.org/2000/svg" xmlns:xlink="http://www.w3.org/1999/xlink" x="0px" y="0px"
	 viewBox="0 0 10 6" style="enable-background:new 0 0 10 6;" xml:space="preserve">
<style type="text/css">
	.st0{clip-path:url(#SVGID_2_);fill:#C1C1C1;}
</style>
<g>
	<defs>
		<path id="SVGID_1_" d="M9.8,0.5L9.5,0.2C9.3,0,9-0.1,8.8,0.1c0,0,0,0,0,0L5,4L1.2,0.2C1,0,0.7-0.1,0.5,0.1c0,0,0,0,0,0L0.1,0.5
			C0,0.7,0,1.1,0.1,1.3l4.5,4.6c0.2,0.2,0.5,0.2,0.7,0c0,0,0,0,0,0l4.5-4.6C10.1,1.1,10.1,0.7,9.8,0.5z"/>
	</defs>
	<use xlink:href="#SVGID_1_"  style="overflow:visible;fill:#C1C1C1;"/>
	<clipPath id="SVGID_2_">
		<use xlink:href="#SVGID_1_"  style="overflow:visible;"/>
	</clipPath>
	<path class="st0" d="M-3-5.1h16v16.3H-3V-5.1z"/>
</g>
</svg>
